<?xml version="1.0" standalone="no"?>
<!DOCTYPE svg PUBLIC "-//W3C//DTD SVG 20010904//EN"
 "http://www.w3.org/TR/2001/REC-SVG-20010904/DTD/svg10.dtd">
<svg version="1.0" xmlns="http://www.w3.org/2000/svg"
 width="1280.000000pt" height="960.000000pt" viewBox="0 0 1280.000000 960.000000"
 preserveAspectRatio="xMidYMid meet">

<g transform="translate(0.000000,960.000000) scale(0.100000,-0.100000)"
fill="#000000" stroke="none">
<path d="M6550 7060 c-122 -17 -211 -55 -316 -134 -102 -76 -168 -168 -211
-293 -36 -106 -38 -251 -5 -331 19 -45 97 -172 105 -172 2 0 3 30 3 68 -1 58
4 77 37 142 20 41 37 80 37 86 0 21 41 54 69 54 55 0 83 -43 68 -102 -8 -32
-58 -62 -87 -53 -32 10 -60 -43 -60 -112 1 -159 114 -241 349 -251 133 -5 225
8 324 48 323 132 463 406 348 682 -32 76 -104 188 -121 188 -5 0 2 -29 15 -65
33 -86 48 -186 40 -263 -8 -73 -16 -75 -20 -4 -4 61 -39 191 -72 259 -31 67
-102 164 -140 191 -71 50 -241 80 -363 62z"/>
<path d="M7242 6785 c2 -5 18 -40 36 -77 40 -85 53 -144 54 -238 0 -196 -123
-383 -321 -488 -163 -87 -299 -117 -488 -110 -147 6 -246 36 -353 107 -133 87
-194 188 -225 369 l-13 77 -1 -87 c-1 -99 25 -197 82 -305 65 -126 174 -231
307 -298 136 -67 192 -79 365 -79 140 -1 155 1 224 28 178 68 313 185 388 336
75 151 88 206 88 360 -1 184 -30 275 -126 390 -11 14 -19 21 -17 15z"/>
<path d="M5680 4984 l0 -924 513 2 512 3 0 105 0 105 -377 3 -378 2 -2 503
c-3 707 -3 717 -5 863 l-3 130 -47 21 c-27 12 -85 42 -130 67 l-83 45 0 -925z"/>
<path d="M3464 5551 c-103 -17 -182 -52 -245 -108 -118 -106 -165 -268 -125
-421 40 -149 130 -219 381 -297 66 -21 141 -48 167 -61 150 -76 141 -293 -16
-377 -34 -18 -57 -22 -136 -22 -83 1 -103 4 -158 29 -44 20 -78 46 -111 83
l-48 53 -30 -32 c-16 -18 -56 -58 -88 -87 l-58 -55 58 -54 c138 -129 365 -188
559 -147 158 33 270 115 333 243 37 75 38 78 38 191 0 110 -2 120 -32 184 -39
82 -116 161 -193 199 -30 14 -111 43 -180 64 -69 20 -145 47 -170 59 -125 63
-119 240 9 307 101 53 261 31 347 -47 l37 -34 36 28 c47 37 131 127 131 140 0
15 -67 67 -129 100 -100 53 -263 80 -377 62z"/>
<path d="M4735 5549 c-187 -27 -360 -193 -395 -378 -5 -29 -10 -203 -10 -385
0 -350 5 -398 49 -484 64 -125 201 -224 346 -251 85 -16 142 -14 229 9 209 53
352 213 375 420 5 47 8 220 7 385 -4 327 -7 352 -70 459 -61 105 -215 205
-346 226 -74 11 -100 11 -185 -1z m211 -247 c53 -27 110 -91 123 -139 14 -49
15 -685 1 -732 -15 -53 -51 -99 -105 -134 -45 -29 -56 -32 -130 -32 -115 0
-187 41 -236 135 -24 45 -24 47 -24 400 0 348 0 356 22 395 29 52 42 68 75 89
75 49 198 57 274 18z"/>
<path d="M7325 5554 c-113 -18 -199 -57 -271 -126 -66 -62 -105 -123 -135
-208 -23 -63 -24 -75 -24 -420 0 -309 2 -362 17 -411 46 -148 155 -261 303
-315 190 -69 398 -23 540 119 34 34 74 86 89 115 52 104 57 153 54 531 -3 314
-5 350 -22 391 -84 196 -243 313 -443 324 -43 2 -91 2 -108 0z m169 -244 c62
-24 116 -77 137 -136 20 -56 20 -702 0 -757 -17 -50 -64 -103 -115 -130 -60
-32 -174 -31 -238 2 -57 29 -78 51 -110 111 -23 45 -23 47 -23 395 0 339 1
351 22 395 58 120 193 170 327 120z"/>
<path d="M8240 4806 l0 -734 23 -6 c12 -3 70 -6 130 -6 l107 0 0 330 0 330
205 0 205 0 0 110 0 110 -205 0 -205 0 0 185 0 185 290 0 290 0 0 115 0 115
-420 0 -420 0 0 -734z"/>
<path d="M9210 4806 l0 -733 113 -7 c63 -4 126 -4 141 0 l27 7 -3 403 -3 404
22 -47 c152 -325 267 -561 278 -572 15 -16 37 27 190 377 49 111 93 202 97
202 5 0 8 -173 8 -384 l0 -384 139 -7 c77 -4 144 -4 150 -1 7 5 9 223 5 694
-2 378 -4 708 -4 735 l0 47 -137 0 -138 0 -91 -198 c-51 -108 -116 -257 -145
-329 -29 -73 -56 -133 -60 -133 -4 0 -11 10 -15 23 -8 26 -68 161 -162 364
-38 81 -82 176 -97 211 l-29 62 -143 0 -143 0 0 -734z"/>
<path d="M6338 4947 c-161 -75 -137 -310 37 -356 73 -19 159 15 202 80 56 85
34 201 -49 257 -46 30 -144 40 -190 19z"/>
</g>
</svg>
